<?xml version="1.0" encoding="iso-8859-1"?>
<!-- Generator: Adobe Illustrator 19.0.0, SVG Export Plug-In . SVG Version: 6.00 Build 0)  -->
<svg version="1.1" id="Capa_1" xmlns="http://www.w3.org/2000/svg" xmlns:xlink="http://www.w3.org/1999/xlink" x="0px" y="0px"
	 viewBox="0 0 512.003 512.003" style="enable-background:new 0 0 512.003 512.003;" xml:space="preserve">
<path style="fill:#7C75DA;" d="M406.163,501.706c-2.583,0-5.166-0.66-7.499-2.011L256.001,417.57l-142.663,82.126
	c-5.122,2.98-11.505,2.642-16.334-0.866c-4.799-3.478-7.088-9.452-5.87-15.262L125.167,322.5L4.964,212.211
	c-4.403-3.962-6.061-10.156-4.227-15.791c1.834-5.651,6.81-9.686,12.71-10.302l161.691-17.405l67.142-150.324
	c4.843-10.801,22.601-10.801,27.444,0l67.142,150.324l161.691,17.405c5.9,0.616,10.874,4.653,12.71,10.302
	c1.834,5.636,0.176,11.829-4.227,15.791L386.835,322.499l34.033,161.067c1.218,5.812-1.071,11.785-5.87,15.262
	C412.372,500.737,409.275,501.706,406.163,501.706z"/>
<path style="fill:#615AD3;" d="M398.664,499.695c2.333,1.351,4.916,2.011,7.499,2.011c3.111,0,6.208-0.969,8.834-2.876
	c4.799-3.478,7.088-9.452,5.87-15.262l-34.033-161.067l120.202-110.289c4.403-3.962,6.061-10.156,4.227-15.791
	c-1.834-5.651-6.81-9.686-12.71-10.302l-161.691-17.405l-67.14-150.324c-2.422-5.401-8.072-8.101-13.722-8.101V417.57
	L398.664,499.695z"/>
<g>
</g>
<g>
</g>
<g>
</g>
<g>
</g>
<g>
</g>
<g>
</g>
<g>
</g>
<g>
</g>
<g>
</g>
<g>
</g>
<g>
</g>
<g>
</g>
<g>
</g>
<g>
</g>
<g>
</g>
</svg>
